<svg width="61" height="20" viewBox="0 0 61 20" fill="none" xmlns="http://www.w3.org/2000/svg">
<rect width="61" height="20" rx="2" fill="white"/>
<path d="M9.07652 14.0717C8.60548 14.0717 8.18223 13.9898 7.80676 13.8259C7.43812 13.6553 7.14799 13.4231 6.93636 13.1296C6.72473 12.8292 6.61551 12.4845 6.60868 12.0954H7.60196C7.63609 12.4299 7.77263 12.7132 8.01156 12.9453C8.25732 13.1706 8.61231 13.2832 9.07652 13.2832C9.52025 13.2832 9.86841 13.174 10.121 12.9555C10.3804 12.7302 10.5101 12.4435 10.5101 12.0954C10.5101 11.8223 10.435 11.6004 10.2848 11.4298C10.1347 11.2591 9.94692 11.1294 9.72164 11.0406C9.49636 10.9519 9.19257 10.8563 8.81028 10.7539C8.33924 10.631 7.96036 10.5082 7.67364 10.3853C7.39375 10.2624 7.1514 10.0713 6.9466 9.81184C6.74863 9.5456 6.64964 9.19061 6.64964 8.74688C6.64964 8.35776 6.74863 8.01301 6.9466 7.71264C7.14457 7.41227 7.42105 7.18016 7.77604 7.01632C8.13785 6.85248 8.55087 6.77056 9.01508 6.77056C9.68409 6.77056 10.2302 6.93781 10.6535 7.27232C11.0836 7.60683 11.3259 8.05056 11.3805 8.60352H10.3565C10.3224 8.33045 10.179 8.09152 9.92644 7.88672C9.67385 7.67509 9.33935 7.56928 8.92292 7.56928C8.5338 7.56928 8.21636 7.67168 7.9706 7.87648C7.72484 8.07445 7.60196 8.35435 7.60196 8.71616C7.60196 8.97557 7.67364 9.1872 7.817 9.35104C7.96719 9.51488 8.14809 9.64117 8.35972 9.72992C8.57817 9.81184 8.88196 9.90741 9.27108 10.0166C9.74212 10.1463 10.121 10.2761 10.4077 10.4058C10.6944 10.5286 10.9402 10.7232 11.145 10.9894C11.3498 11.2489 11.4522 11.6038 11.4522 12.0544C11.4522 12.4026 11.36 12.7302 11.1757 13.0374C10.9914 13.3446 10.7183 13.5938 10.3565 13.785C9.99471 13.9761 9.56804 14.0717 9.07652 14.0717ZM16.0593 14.0717C15.3971 14.0717 14.793 13.9181 14.2468 13.6109C13.7007 13.2969 13.2672 12.8634 12.9464 12.3104C12.6323 11.7506 12.4753 11.1226 12.4753 10.4262C12.4753 9.72992 12.6323 9.10528 12.9464 8.55232C13.2672 7.99253 13.7007 7.55904 14.2468 7.25184C14.793 6.93781 15.3971 6.7808 16.0593 6.7808C16.7283 6.7808 17.3359 6.93781 17.882 7.25184C18.4282 7.55904 18.8583 7.98912 19.1723 8.54208C19.4863 9.09504 19.6433 9.72309 19.6433 10.4262C19.6433 11.1294 19.4863 11.7574 19.1723 12.3104C18.8583 12.8634 18.4282 13.2969 17.882 13.6109C17.3359 13.9181 16.7283 14.0717 16.0593 14.0717ZM16.0593 13.2627C16.5577 13.2627 17.0048 13.1467 17.4008 12.9146C17.8035 12.6825 18.1176 12.3514 18.3428 11.9213C18.5749 11.4912 18.691 10.9929 18.691 10.4262C18.691 9.8528 18.5749 9.35445 18.3428 8.9312C18.1176 8.50112 17.8069 8.17003 17.411 7.93792C17.0151 7.70581 16.5645 7.58976 16.0593 7.58976C15.5541 7.58976 15.1036 7.70581 14.7076 7.93792C14.3117 8.17003 13.9977 8.50112 13.7656 8.9312C13.5403 9.35445 13.4276 9.8528 13.4276 10.4262C13.4276 10.9929 13.5403 11.4912 13.7656 11.9213C13.9977 12.3514 14.3117 12.6825 14.7076 12.9146C15.1104 13.1467 15.561 13.2627 16.0593 13.2627ZM21.8053 13.2422H24.3039V14H20.8735V6.86272H21.8053V13.2422ZM27.5156 6.86272C28.2938 6.86272 28.9662 7.00949 29.5328 7.30304C30.1063 7.58976 30.5432 8.00277 30.8436 8.54208C31.1508 9.08139 31.3044 9.71627 31.3044 10.4467C31.3044 11.1772 31.1508 11.8121 30.8436 12.3514C30.5432 12.8838 30.1063 13.2934 29.5328 13.5802C28.9662 13.8601 28.2938 14 27.5156 14H25.2935V6.86272H27.5156ZM27.5156 13.232C28.4372 13.232 29.1403 12.9897 29.625 12.505C30.1097 12.0134 30.352 11.3274 30.352 10.4467C30.352 9.55925 30.1063 8.86635 29.6148 8.368C29.1301 7.86965 28.4303 7.62048 27.5156 7.62048H26.2253V13.232H27.5156ZM38.4993 14.0717C37.8371 14.0717 37.233 13.9181 36.6868 13.6109C36.1407 13.2969 35.7072 12.8634 35.3864 12.3104C35.0723 11.7506 34.9153 11.1226 34.9153 10.4262C34.9153 9.72992 35.0723 9.10528 35.3864 8.55232C35.7072 7.99253 36.1407 7.55904 36.6868 7.25184C37.233 6.93781 37.8371 6.7808 38.4993 6.7808C39.1683 6.7808 39.7759 6.93781 40.322 7.25184C40.8682 7.55904 41.2983 7.98912 41.6123 8.54208C41.9263 9.09504 42.0833 9.72309 42.0833 10.4262C42.0833 11.1294 41.9263 11.7574 41.6123 12.3104C41.2983 12.8634 40.8682 13.2969 40.322 13.6109C39.7759 13.9181 39.1683 14.0717 38.4993 14.0717ZM38.4993 13.2627C38.9977 13.2627 39.4448 13.1467 39.8408 12.9146C40.2435 12.6825 40.5576 12.3514 40.7828 11.9213C41.0149 11.4912 41.131 10.9929 41.131 10.4262C41.131 9.8528 41.0149 9.35445 40.7828 8.9312C40.5576 8.50112 40.2469 8.17003 39.851 7.93792C39.4551 7.70581 39.0045 7.58976 38.4993 7.58976C37.9941 7.58976 37.5436 7.70581 37.1476 7.93792C36.7517 8.17003 36.4377 8.50112 36.2056 8.9312C35.9803 9.35445 35.8676 9.8528 35.8676 10.4262C35.8676 10.9929 35.9803 11.4912 36.2056 11.9213C36.4377 12.3514 36.7517 12.6825 37.1476 12.9146C37.5504 13.1467 38.001 13.2627 38.4993 13.2627ZM44.2248 6.86272V11.3786C44.2248 12.0134 44.3784 12.4845 44.6856 12.7917C44.9997 13.0989 45.4332 13.2525 45.9861 13.2525C46.5323 13.2525 46.9589 13.0989 47.2661 12.7917C47.5801 12.4845 47.7372 12.0134 47.7372 11.3786V6.86272H48.669V11.3683C48.669 11.9622 48.5495 12.464 48.3106 12.8736C48.0717 13.2764 47.7474 13.5767 47.3378 13.7747C46.935 13.9727 46.4811 14.0717 45.9759 14.0717C45.4707 14.0717 45.0133 13.9727 44.6037 13.7747C44.2009 13.5767 43.8801 13.2764 43.6412 12.8736C43.4091 12.464 43.293 11.9622 43.293 11.3683V6.86272H44.2248ZM54.6164 6.86272V7.62048H52.6708V14H51.739V7.62048H49.7832V6.86272H54.6164Z" fill="#222222"/>
</svg>
