<svg width="61" height="20" viewBox="0 0 61 20" fill="none" xmlns="http://www.w3.org/2000/svg">
<rect width="61" height="20" rx="2" fill="white"/>
<path d="M17.2043 14.0717C16.5421 14.0717 15.938 13.9181 15.3918 13.6109C14.8457 13.2969 14.4122 12.8634 14.0914 12.3104C13.7773 11.7506 13.6203 11.1226 13.6203 10.4262C13.6203 9.72992 13.7773 9.10528 14.0914 8.55232C14.4122 7.99253 14.8457 7.55904 15.3918 7.25184C15.938 6.93781 16.5421 6.7808 17.2043 6.7808C17.8733 6.7808 18.4809 6.93781 19.027 7.25184C19.5732 7.55904 20.0033 7.98912 20.3173 8.54208C20.6313 9.09504 20.7883 9.72309 20.7883 10.4262C20.7883 11.1294 20.6313 11.7574 20.3173 12.3104C20.0033 12.8634 19.5732 13.2969 19.027 13.6109C18.4809 13.9181 17.8733 14.0717 17.2043 14.0717ZM17.2043 13.2627C17.7027 13.2627 18.1498 13.1467 18.5458 12.9146C18.9485 12.6825 19.2626 12.3514 19.4878 11.9213C19.7199 11.4912 19.836 10.9929 19.836 10.4262C19.836 9.8528 19.7199 9.35445 19.4878 8.9312C19.2626 8.50112 18.9519 8.17003 18.556 7.93792C18.1601 7.70581 17.7095 7.58976 17.2043 7.58976C16.6991 7.58976 16.2486 7.70581 15.8526 7.93792C15.4567 8.17003 15.1427 8.50112 14.9106 8.9312C14.6853 9.35445 14.5726 9.8528 14.5726 10.4262C14.5726 10.9929 14.6853 11.4912 14.9106 11.9213C15.1427 12.3514 15.4567 12.6825 15.8526 12.9146C16.2554 13.1467 16.706 13.2627 17.2043 13.2627ZM27.63 14H26.6982L22.9503 8.3168V14H22.0185V6.85248H22.9503L26.6982 12.5254V6.85248H27.63V14ZM30.1503 13.2422H32.6489V14H29.2185V6.86272H30.1503V13.2422ZM34.5703 6.86272V14H33.6385V6.86272H34.5703ZM41.77 14H40.8382L37.0903 8.3168V14H36.1585V6.85248H37.0903L40.8382 12.5254V6.85248H41.77V14ZM44.2903 7.62048V10.0064H46.8913V10.7744H44.2903V13.232H47.1985V14H43.3585V6.85248H47.1985V7.62048H44.2903Z" fill="#222222"/>
</svg>
